<svg width="32" height="32" viewBox="0 0 32 32" fill="none" xmlns="http://www.w3.org/2000/svg">
<path d="M13.5617 30V19.6021H10V15.5475H13.5617V12.4574C13.5617 8.94195 15.656 7 18.8602 7C20.3949 7 22 7.27392 22 7.27392V10.7259H20.2312C18.4887 10.7259 17.9452 11.8072 17.9452 12.9164V15.5475H21.8359L21.2136 19.6021H17.9452V30" stroke="white" stroke-width="2" stroke-linecap="round"/>
<path d="M30 26V7C30 4.23858 27.7614 2 25 2H7C4.23858 2 2 4.23858 2 7V26" stroke="white" stroke-width="2" stroke-linecap="round"/>
<mask id="path-3-inside-1_62_319" fill="white">
<path d="M1.25 7C1.25 4.23858 3.48858 2 6.25 2H14.25V30C14.25 30.5523 13.8023 31 13.25 31H6.25C3.48858 31 1.25 28.7614 1.25 26V7Z"/>
</mask>
<path d="M1.25 2H14.25H1.25ZM14.25 30C14.25 31.6569 12.9069 33 11.25 33H6.25C2.38401 33 -0.75 29.866 -0.75 26H3.25C3.25 27.6569 4.59315 29 6.25 29H13.25C13.8023 29 14.25 29 14.25 29V30ZM6.25 33C2.38401 33 -0.75 29.866 -0.75 26V9C-0.75 5.13401 2.38401 2 6.25 2C4.59315 2 3.25 4.23858 3.25 7V26C3.25 27.6569 4.59315 29 6.25 29V33ZM14.25 2V31V2Z" fill="white" mask="url(#path-3-inside-1_62_319)"/>
<mask id="path-5-inside-2_62_319" fill="white">
<path d="M17.25 2H25.75C28.5114 2 30.75 4.23858 30.75 7V26C30.75 28.7614 28.5114 31 25.75 31H18.25C17.6977 31 17.25 30.5523 17.25 30V2Z"/>
</mask>
<path d="M17.25 2H30.75H17.25ZM32.75 26C32.75 29.866 29.616 33 25.75 33H20.25C18.5931 33 17.25 31.6569 17.25 30V29C17.25 29 17.6977 29 18.25 29H25.75C27.4069 29 28.75 27.6569 28.75 26H32.75ZM17.25 31V2V31ZM25.75 2C29.616 2 32.75 5.13401 32.75 9V26C32.75 29.866 29.616 33 25.75 33V29C27.4069 29 28.75 27.6569 28.75 26V7C28.75 4.23858 27.4069 2 25.75 2Z" fill="white" mask="url(#path-5-inside-2_62_319)"/>
</svg>
