<svg width="30" height="32" viewBox="0 0 30 32" fill="none" xmlns="http://www.w3.org/2000/svg">
<path d="M15.8959 0C8.23576 0 0.665192 4.38543 0.665192 11.4829C0.665192 15.9965 3.62175 18.5611 5.4136 18.5611C6.15274 18.5611 6.5783 16.7916 6.5783 16.2915C6.5783 15.6952 4.80885 14.4257 4.80885 11.9445C4.80885 6.78972 9.37807 3.1352 15.2912 3.1352C20.3756 3.1352 24.1384 5.61642 24.1384 10.175C24.1384 13.5794 22.5482 19.9652 17.3966 19.9652C15.5376 19.9652 13.9473 18.8112 13.9473 17.157C13.9473 14.7335 15.9183 12.3869 15.9183 9.88644C15.9183 5.64207 8.90771 6.41144 8.90771 11.5406C8.90771 12.6177 9.0645 13.8102 9.62445 14.7912C8.59414 18.5996 6.48871 24.2737 6.48871 28.1975C6.48871 29.4093 6.69029 30.6018 6.82468 31.8136C7.07853 32.0572 6.9516 32.0316 7.33984 31.9097C11.1027 27.4858 10.9683 26.6203 12.6706 20.8308C13.5889 22.3311 15.9631 23.1389 17.8446 23.1389C25.7735 23.1389 29.3348 16.5031 29.3348 10.5212C29.3348 4.15461 22.9289 0 15.8959 0Z" fill="white"/>
</svg>
