<svg width="32" height="23" viewBox="0 0 32 23" fill="none" xmlns="http://www.w3.org/2000/svg">
<path d="M30.3648 3.77717L30.365 3.77774C30.6692 4.92061 30.834 6.76237 30.9177 8.3899C30.9589 9.18877 30.9794 9.91138 30.9897 10.4343C30.9949 10.6956 30.9975 10.9065 30.9987 11.0514C30.9994 11.1239 30.9997 11.1799 30.9998 11.2174L31 11.2597L31 11.2699L31 11.2723V11.2727V11.2727V11.2732L31 11.2755L31 11.2858L30.9998 11.328C30.9997 11.3655 30.9994 11.4215 30.9987 11.494C30.9975 11.639 30.9949 11.8498 30.9897 12.1111C30.9794 12.6341 30.9589 13.3567 30.9177 14.1555C30.834 15.7831 30.6692 17.6248 30.365 18.7677L30.3648 18.7683C30.0926 19.7935 29.2888 20.5798 28.2424 20.8613L28.2418 20.8615C27.7224 21.0015 26.7195 21.1235 25.4227 21.2187C24.1542 21.3119 22.6855 21.3744 21.2854 21.4163C19.8868 21.4581 18.5647 21.479 17.5918 21.4895C17.1055 21.4947 16.7069 21.4974 16.4301 21.4987C16.2918 21.4993 16.1839 21.4996 16.1108 21.4998L16.0277 21.5L16.0067 21.5L16.0016 21.5H16.0003H16L16 22.5L15.9999 21.5H15.9997H15.9984L15.9933 21.5L15.9723 21.5L15.8892 21.4998C15.8161 21.4996 15.7082 21.4993 15.5699 21.4987C15.2931 21.4974 14.8945 21.4947 14.4082 21.4895C13.4352 21.479 12.1131 21.4581 10.7146 21.4163C9.31449 21.3744 7.84584 21.3119 6.57731 21.2187C5.28052 21.1235 4.27756 21.0015 3.75819 20.8615L3.75759 20.8613C2.71116 20.5798 1.90744 19.7935 1.63517 18.7683L1.63501 18.7677C1.33076 17.6248 1.16602 15.7831 1.08226 14.1555C1.04115 13.3567 1.02055 12.6341 1.01025 12.1111C1.00511 11.8498 1.00254 11.639 1.00127 11.494C1.00063 11.4215 1.00031 11.3655 1.00015 11.328L1.00002 11.2858L1 11.2755L1 11.2732L1 11.2728V11.2727V11.2727V11.2727L1 11.2723L1 11.2699L1.00002 11.2597L1.00015 11.2174C1.00031 11.1799 1.00063 11.1239 1.00127 11.0514C1.00254 10.9065 1.00511 10.6956 1.01025 10.4343C1.02055 9.91138 1.04115 9.18877 1.08226 8.3899C1.16602 6.76237 1.33076 4.92061 1.63501 3.77774L1.63517 3.77717C1.91202 2.73474 2.72863 1.91552 3.75762 1.63867L3.75819 1.63851C4.27756 1.49845 5.28052 1.37645 6.57731 1.28124C7.84584 1.18811 9.31449 1.12554 10.7146 1.08368C12.1131 1.04186 13.4352 1.02093 14.4082 1.01046C14.8945 1.00522 15.2931 1.00261 15.5699 1.0013C15.7082 1.00065 15.8161 1.00032 15.8892 1.00016L15.9723 1.00002L15.9933 1L15.9984 1L15.9997 1H15.9999L16 0L16 1H16.0003L16.0016 1L16.0067 1L16.0277 1.00002L16.1108 1.00016C16.1839 1.00032 16.2918 1.00065 16.4301 1.0013C16.7069 1.00261 17.1055 1.00522 17.5918 1.01046C18.5648 1.02093 19.8869 1.04186 21.2854 1.08368C22.6855 1.12554 24.1542 1.18811 25.4227 1.28124C26.7195 1.37645 27.7224 1.49845 28.2418 1.63851L28.2424 1.63868C29.2713 1.91547 30.088 2.73471 30.3648 3.77717ZM11.7273 16.0307V17.7501L13.2217 16.8999L21.5853 12.142L23.1132 11.2729L21.5853 10.4037L13.2217 5.64555L11.7273 4.79533V6.51474V16.0307Z" stroke="white" stroke-width="2"/>
</svg>
